<svg width="26" height="24" viewBox="0 0 26 24" fill="none" xmlns="http://www.w3.org/2000/svg">
<path d="M20.3125 9.375L17.6406 12H8.21875L15.625 4.64062C15.9062 4.35938 15.9062 3.89062 15.625 3.60938C15.3438 3.28125 14.8281 3.28125 14.5469 3.60938L2.5 15.6094C0.71875 17.4375 0.390625 20.3906 2.07812 22.3594C3.0625 23.4375 4.375 24 5.73438 24C7 24 8.21875 23.5312 9.15625 22.5938L21.3906 10.4062C21.6719 10.125 21.6719 9.65625 21.3906 9.375C21.1094 9.04688 20.5938 9.04688 20.3125 9.375ZM8.125 21.5625C7.46875 22.1719 6.625 22.5 5.73438 22.5C4.75 22.5 3.85938 22.0781 3.20312 21.375C2.07812 20.0625 2.26562 18 3.57812 16.6875L6.71875 13.5H16.1406L8.125 21.5625ZM24.7656 8.48438L16.5156 0.234375C16.375 0.09375 16.1875 0 16 0C15.7656 0 15.5781 0.09375 15.4375 0.234375C15.1562 0.515625 15.1562 1.03125 15.4375 1.3125L23.6875 9.5625C23.8281 9.70312 24.0156 9.75 24.25 9.75C24.4375 9.75 24.625 9.70312 24.7656 9.5625C25.0469 9.28125 25.0469 8.76562 24.7656 8.48438Z" fill="#5C8EE6"/>
</svg>
