<svg width="24" height="24" viewBox="0 0 24 24" fill="none" xmlns="http://www.w3.org/2000/svg">
<path d="M12.5 6C13.7188 6 14.75 4.96875 14.75 3.75C14.75 2.76562 13.5781 0.984375 13.1094 0.28125C12.9688 0.140625 12.7344 0.046875 12.5 0.046875C12.2188 0.046875 11.9844 0.140625 11.8438 0.328125C11.375 1.03125 10.25 2.8125 10.25 3.75C10.25 5.01562 11.2344 6 12.5 6ZM12.5 2.15625C12.9219 2.90625 13.2031 3.5625 13.25 3.75C13.25 4.17188 12.875 4.5 12.5 4.5C12.0781 4.5 11.75 4.17188 11.75 3.75C11.75 3.51562 12.0312 2.85938 12.5 2.15625ZM19.25 6C20.4688 6 21.5 5.01562 21.5 3.75C21.5 2.8125 20.3281 1.03125 19.8594 0.328125C19.7188 0.140625 19.4844 0.046875 19.25 0.046875C18.9688 0.046875 18.7344 0.140625 18.5938 0.328125C18.125 1.03125 17 2.8125 17 3.75C17 5.01562 17.9844 6 19.25 6ZM19.25 2.15625C19.6719 2.90625 19.9531 3.5625 20 3.75C20 4.17188 19.625 4.5 19.25 4.5C18.8281 4.5 18.5 4.17188 18.5 3.75C18.5 3.51562 18.7812 2.85938 19.25 2.15625ZM5.75 6C6.96875 6 8 5.01562 8 3.75C8 2.8125 6.82812 1.03125 6.35938 0.328125C6.21875 0.140625 5.98438 0.046875 5.75 0.046875C5.46875 0.046875 5.23438 0.140625 5.09375 0.328125C4.625 1.03125 3.5 2.8125 3.5 3.75C3.5 5.01562 4.48438 6 5.75 6ZM5.75 2.15625C6.17188 2.85938 6.45312 3.51562 6.5 3.75C6.5 4.17188 6.125 4.5 5.75 4.5C5.32812 4.5 5 4.17188 5 3.75C5 3.51562 5.28125 2.85938 5.75 2.15625ZM17.75 16.5C17.0938 16.5 16.625 17.0156 16.625 17.625C16.625 18.2812 17.0938 18.75 17.75 18.75C18.3594 18.75 18.875 18.2812 18.875 17.625C18.875 17.0156 18.3594 16.5 17.75 16.5ZM20.1406 13.8281L19.3906 10.5938C19.0625 9.23438 17.8906 8.25 16.4844 8.25H8.32812C6.96875 8.25 5.75 9.23438 5.42188 10.5938L4.67188 13.9219C3.54688 14.4844 2.75 15.6562 2.75 17.0156V19.5938C2.75 20.5312 3.35938 21.375 4.25 21.6562V23.25C4.25 23.6719 4.57812 24 5 24C5.375 24 5.75 23.6719 5.75 23.25V21.75H19.25V23.25C19.25 23.6719 19.5781 24 20 24C20.375 24 20.75 23.6719 20.75 23.25V21.6562C21.6406 21.375 22.2031 20.5312 22.25 19.5938V17.0156C22.25 15.6562 21.4062 14.3906 20.1406 13.8281ZM6.875 10.9219C7.0625 10.2656 7.67188 9.79688 8.375 9.79688H16.4844C17.1875 9.79688 17.7969 10.2656 17.9375 10.9219L18.5469 13.5469H6.3125L6.875 10.9219ZM20.75 19.5938C20.75 19.9688 20.4219 20.2969 20.0469 20.2969H4.90625C4.53125 20.25 4.25 19.9688 4.25 19.5938V17.0156C4.25 15.9375 5.14062 15.0469 6.21875 15.0469H18.7344C19.8125 15.0469 20.75 15.9375 20.75 17.0156V19.5938ZM7.25 16.5C6.59375 16.5 6.125 17.0156 6.125 17.625C6.125 18.2812 6.59375 18.75 7.25 18.75C7.85938 18.75 8.375 18.2812 8.375 17.625C8.375 17.0156 7.85938 16.5 7.25 16.5Z" fill="#5C8EE6"/>
</svg>
