<svg width="24" height="25" viewBox="0 0 24 25" fill="none" xmlns="http://www.w3.org/2000/svg">
<path d="M17 0H5C3.3125 0 2 1.35938 2 3V13.5C2 16.0312 3.96875 18 6.5 18H8V20.8594C8 22.3594 8.98438 23.7656 10.4844 24C12.3594 24.2812 14 22.8281 14 21V18H15.5C17.9844 18 20 16.0312 20 13.5V3C20 1.35938 18.6406 0 17 0ZM15.5 16.5H12.5V21C12.5 21.8438 11.7969 22.5 11 22.5C10.1562 22.5 9.5 21.8438 9.5 21V16.5H6.5C4.8125 16.5 3.5 15.1875 3.5 13.5H18.5C18.5 15.1875 17.1406 16.5 15.5 16.5ZM18.5 12H3.5V3C3.5 2.20312 4.15625 1.5 5 1.5H6.5V6.75C6.5 7.17188 6.82812 7.5 7.25 7.5C7.625 7.5 8 7.17188 8 6.75V1.5H11V5.25C11 5.67188 11.3281 6 11.75 6C12.125 6 12.5 5.67188 12.5 5.25V1.5H17C17.7969 1.5 18.5 2.20312 18.5 3V12Z" fill="#5C8EE6"/>
</svg>
