<svg width="18" height="25" viewBox="0 0 18 25" fill="none" xmlns="http://www.w3.org/2000/svg">
<path d="M15 0H3C1.3125 0 0 1.35938 0 3V13.5C0 16.0312 1.96875 18 4.5 18H6V20.8594C6 22.3594 6.98438 23.7656 8.48438 24C10.3594 24.2812 12 22.8281 12 21V18H13.5C15.9844 18 18 16.0312 18 13.5V3C18 1.35938 16.6406 0 15 0ZM13.5 16.5H10.5V21C10.5 21.8438 9.79688 22.5 9 22.5C8.15625 22.5 7.5 21.8438 7.5 21V16.5H4.5C2.8125 16.5 1.5 15.1875 1.5 13.5H16.5C16.5 15.1875 15.1406 16.5 13.5 16.5ZM16.5 12H1.5V3C1.5 2.20312 2.15625 1.5 3 1.5H4.5V6.75C4.5 7.17188 4.82812 7.5 5.25 7.5C5.625 7.5 6 7.17188 6 6.75V1.5H9V5.25C9 5.67188 9.32812 6 9.75 6C10.125 6 10.5 5.67188 10.5 5.25V1.5H15C15.7969 1.5 16.5 2.20312 16.5 3V12Z" fill="#5C8EE6"/>
</svg>
